HIERARCHY
ROOT joint_Root
{
	OFFSET 0.0 0.0 0.0
	CHANNELS 6 Xposition Yposition Zposition Zrotation Xrotation Yrotation 
	JOINT Hips
	{
		OFFSET -0.726466 93.3139 -2.00062
		CHANNELS 6 Xposition Yposition Zposition Zrotation Xrotation Yrotation 
		JOINT Spine
		{
			OFFSET 15.7357 0.0 0.0
			CHANNELS 6 Xposition Yposition Zposition Zrotation Xrotation Yrotation 
			JOINT Chest
			{
				OFFSET 8.98455 -0.406207 0.0
				CHANNELS 6 Xposition Yposition Zposition Zrotation Xrotation Yrotation 
				JOINT Neck
				{
					OFFSET 16.3773 0.0 0.0
					CHANNELS 6 Xposition Yposition Zposition Zrotation Xrotation Yrotation 
					JOINT Head
					{
						OFFSET 6.45672 0.0 0.0
						CHANNELS 6 Xposition Yposition Zposition Zrotation Xrotation Yrotation 
						End Site
						{
							OFFSET 0.0 0.0 0.0
						}
					}
				}
				JOINT Shoulder_L
				{
					OFFSET 12.9942 -0.242716 4.98039
					CHANNELS 6 Xposition Yposition Zposition Zrotation Xrotation Yrotation 
					JOINT UpperArm_L
					{
						OFFSET 5.34809 0.0 0.0
						CHANNELS 6 Xposition Yposition Zposition Zrotation Xrotation Yrotation 
						JOINT LowerArm_L
						{
							OFFSET 24.3286 1.87007e-05 0.0
							CHANNELS 6 Xposition Yposition Zposition Zrotation Xrotation Yrotation 
							JOINT Hand_L
							{
								OFFSET 22.2916 0.0 0.0
								CHANNELS 6 Xposition Yposition Zposition Zrotation Xrotation Yrotation 
								End Site
								{
									OFFSET 0.0 0.0 0.0
								}
							}
						}
					}
				}
				JOINT Shoulder_R
				{
					OFFSET 12.9945 -0.242716 -4.98039
					CHANNELS 6 Xposition Yposition Zposition Zrotation Xrotation Yrotation 
					JOINT UpperArm_R
					{
						OFFSET -5.34813 0.0 0.0
						CHANNELS 6 Xposition Yposition Zposition Zrotation Xrotation Yrotation 
						JOINT LowerArm_R
						{
							OFFSET -24.3289 0.000322201 0.0
							CHANNELS 6 Xposition Yposition Zposition Zrotation Xrotation Yrotation 
							JOINT Hand_R
							{
								OFFSET -22.2915 -0.000108084 0.0
								CHANNELS 6 Xposition Yposition Zposition Zrotation Xrotation Yrotation 
								End Site
								{
									OFFSET 0.0 0.0 0.0
								}
							}
						}
					}
				}
			}
		}
		JOINT UpperLeg_L
		{
			OFFSET -2.19248 -6.46944 0.0
			CHANNELS 6 Xposition Yposition Zposition Zrotation Xrotation Yrotation 
			JOINT LowerLeg_L
			{
				OFFSET 39.0811 0.0 -1.23785e-05
				CHANNELS 6 Xposition Yposition Zposition Zrotation Xrotation Yrotation 
				JOINT Foot_L
				{
					OFFSET 40.9854 0.0 -1.26872e-05
					CHANNELS 6 Xposition Yposition Zposition Zrotation Xrotation Yrotation 
					JOINT Toes_L
					{
						OFFSET 11.7543 0.0 0.0
						CHANNELS 6 Xposition Yposition Zposition Zrotation Xrotation Yrotation 
						End Site
						{
							OFFSET 0.0 0.0 0.0
						}
					}
				}
			}
		}
		JOINT UpperLeg_R
		{
			OFFSET -2.19251 6.46944 0.0
			CHANNELS 6 Xposition Yposition Zposition Zrotation Xrotation Yrotation 
			JOINT LowerLeg_R
			{
				OFFSET -39.0811 -0.00228153 -0.0401928
				CHANNELS 6 Xposition Yposition Zposition Zrotation Xrotation Yrotation 
				JOINT Foot_R
				{
					OFFSET -40.9854 0.0 0.0
					CHANNELS 6 Xposition Yposition Zposition Zrotation Xrotation Yrotation 
					JOINT Toes_R
					{
						OFFSET -11.7543 0.0 0.0
						CHANNELS 6 Xposition Yposition Zposition Zrotation Xrotation Yrotation 
						End Site
						{
							OFFSET 0.0 0.0 0.0
						}
					}
				}
			}
		}
	}
}
MOTION
Frames:	6
Frame Time:	0.0333333
0.000000 0.000000 0.000000 0.000000 0.000000 -0.000000 -0.988632 92.095800 -0.130583 88.182000 -1.358300 4.984180 15.735700 0.000005 -0.000001 72.936500 87.508200 -72.306300 8.984550 -0.406207 -0.000000 -2.993690 -1.520860 1.220950 16.377300 -0.000001 -0.000001 -1.832610 -1.134280 0.815657 6.456720 -0.000001 -0.000000 -1.274660 -0.661057 -0.327610 12.994200 -0.242716 4.980390 -84.364000 -12.623000 -65.697200 5.348090 -0.000007 -0.000001 -58.392500 -56.250500 -86.810800 24.328600 0.000019 0.000005 3.087590 1.468890 -64.581500 22.291600 -0.000001 0.000005 19.532000 5.649980 -15.013800 12.994500 -0.242716 -4.980390 92.730100 -6.476000 -67.082000 -5.348130 -0.000001 -0.000004 -50.661100 -56.863200 -97.688800 -24.328900 0.000322 -0.000009 3.292510 2.661830 -51.097400 -22.291500 -0.000108 -0.000004 24.723700 5.621470 -12.721600 -2.192480 -6.469440 -0.000000 -169.621000 -19.965400 -1.046640 39.081100 -0.000007 -0.000012 -0.146907 0.354963 22.483100 40.985400 -0.000006 -0.000013 -5.453910 0.231010 -64.120500 11.754300 -0.000000 0.000003 -0.000150 -0.001455 -16.632900 -2.192510 6.469440 -0.000001 173.583000 23.493700 -179.162000 -39.081100 -0.002282 -0.040193 0.022130 -0.049193 20.925500 -40.985400 0.000008 0.000006 -0.733607 3.961920 -64.106300 -11.754300 -0.000006 -0.000006 -0.004320 -0.054728 -18.799500
0.000000 0.000000 0.000000 0.000000 0.000000 -0.000000 -1.009190 92.101700 -0.110155 88.181900 -1.323190 4.936250 15.735700 0.000005 -0.000001 72.799700 87.485900 -72.180700 8.984550 -0.406207 -0.000000 -2.954570 -1.544180 1.198390 16.377300 -0.000001 -0.000001 -1.798660 -1.130740 0.808103 6.456720 -0.000001 -0.000000 -1.193210 -0.660540 -0.250284 12.994200 -0.242716 4.980390 -84.344200 -12.639700 -65.649000 5.348090 -0.000007 -0.000001 -58.736600 -56.307600 -86.984500 24.328600 0.000019 0.000005 2.858350 1.351570 -64.713000 22.291600 -0.000001 0.000005 19.621500 5.651050 -15.116800 12.994500 -0.242716 -4.980390 92.737400 -6.487960 -67.064600 -5.348130 -0.000001 -0.000004 -50.391700 -57.069100 -97.275900 -24.328900 0.000322 -0.000009 3.272470 2.614990 -51.422500 -22.291500 -0.000108 -0.000004 24.615100 5.619170 -12.563500 -2.192480 -6.469440 -0.000000 -169.604000 -19.990500 -1.050320 39.081100 -0.000007 -0.000012 -0.148988 0.361311 22.409100 40.985400 -0.000006 -0.000013 -5.470740 0.278837 -64.081300 11.754300 -0.000000 0.000003 -0.000137 -0.001347 -16.628900 -2.192510 6.469440 -0.000001 173.628000 23.465100 -179.198000 -39.081100 -0.002282 -0.040193 0.023078 -0.051684 20.921500 -40.985400 0.000008 0.000006 -0.673037 3.885050 -64.106100 -11.754300 -0.000006 -0.000006 -0.004492 -0.056462 -18.870100
0.000000 0.000000 0.000000 0.000000 0.000000 -0.000000 -1.024770 92.109800 -0.096164 88.161500 -1.280820 4.849150 15.735700 0.000005 -0.000001 72.940100 87.484100 -72.317700 8.984550 -0.406207 -0.000000 -2.947430 -1.533770 1.205610 16.377300 -0.000001 -0.000001 -1.715520 -1.117160 0.788129 6.456720 -0.000001 -0.000000 -1.188740 -0.696943 -0.248701 12.994200 -0.242716 4.980390 -84.364600 -12.582000 -65.630400 5.348090 -0.000007 -0.000001 -58.947900 -56.283200 -86.918800 24.328600 0.000019 0.000005 2.682130 1.243530 -65.143500 22.291600 -0.000001 0.000005 19.415800 5.649210 -14.940200 12.994500 -0.242716 -4.980390 92.727700 -6.444260 -66.999200 -5.348130 -0.000001 -0.000004 -50.107700 -57.240000 -96.727200 -24.328900 0.000322 -0.000009 3.154990 2.455540 -52.153600 -22.291500 -0.000108 -0.000004 23.962300 5.615000 -12.283200 -2.192480 -6.469440 -0.000000 -169.615000 -19.999200 -1.131120 39.081100 -0.000007 -0.000012 -0.147069 0.357338 22.370600 40.985400 -0.000006 -0.000013 -5.473740 0.276565 -64.054400 11.754300 -0.000000 0.000003 -0.000148 -0.001437 -16.632200 -2.192510 6.469440 -0.000001 173.680000 23.552900 -179.254000 -39.081100 -0.002282 -0.040193 0.022158 -0.049410 20.869800 -40.985400 0.000008 0.000006 -0.707258 3.901340 -64.053800 -11.754300 -0.000006 -0.000006 -0.004275 -0.054268 -18.780700
0.000000 0.000000 0.000000 0.000000 0.000000 -0.000000 -1.037780 92.109400 -0.065184 88.167600 -1.307410 4.824830 15.735700 0.000005 -0.000001 73.439900 87.438500 -72.827700 8.984550 -0.406207 -0.000000 -2.847610 -1.516270 1.186800 16.377300 -0.000001 -0.000001 -1.679920 -1.119700 0.809596 6.456720 -0.000001 -0.000000 -1.213820 -0.651007 -0.250431 12.994200 -0.242716 4.980390 -84.370600 -12.552000 -65.603200 5.348090 -0.000007 -0.000001 -58.838200 -56.330100 -86.199800 24.328600 0.000019 0.000005 2.041600 0.907084 -66.054300 22.291600 -0.000001 0.000005 19.073500 5.647810 -14.809400 12.994500 -0.242716 -4.980390 92.686900 -6.339490 -66.973300 -5.348130 -0.000001 -0.000004 -49.719900 -57.387500 -95.782800 -24.328900 0.000322 -0.000009 3.084470 2.275570 -53.626500 -22.291500 -0.000108 -0.000004 22.740600 5.599740 -11.325700 -2.192480 -6.469440 -0.000000 -169.608000 -20.025300 -1.110600 39.081100 -0.000007 -0.000012 -0.147314 0.358477 22.340100 40.985400 -0.000006 -0.000013 -5.486870 0.293909 -64.059100 11.754300 -0.000000 0.000003 -0.000147 -0.001432 -16.632000 -2.192510 6.469440 -0.000001 173.667000 23.634900 -179.247000 -39.081100 -0.002282 -0.040193 0.022224 -0.049610 20.859000 -40.985400 0.000008 0.000006 -0.725016 3.978850 -64.064300 -11.754300 -0.000006 -0.000006 -0.004474 -0.056281 -18.862700
0.000000 0.000000 0.000000 0.000000 0.000000 -0.000000 -1.053040 92.110300 -0.040178 88.167400 -1.299990 4.781150 15.735700 0.000005 -0.000001 74.019100 87.398200 -73.428500 8.984550 -0.406207 -0.000000 -2.755970 -1.486330 1.145540 16.377300 -0.000001 -0.000001 -1.622330 -1.154560 0.857599 6.456720 -0.000001 -0.000000 -1.265380 -0.642919 -0.204675 12.994200 -0.242716 4.980390 -84.387600 -12.536900 -65.643100 5.348090 -0.000007 -0.000001 -58.262900 -56.323900 -84.605900 24.328600 0.000019 0.000005 0.878631 0.360056 -67.719800 22.291600 -0.000001 0.000005 18.175100 5.641880 -14.284300 12.994500 -0.242716 -4.980390 92.628400 -6.187270 -66.929300 -5.348130 -0.000001 -0.000004 -48.634200 -57.468700 -93.711000 -24.328900 0.000322 -0.000009 2.927300 1.986510 -55.879000 -22.291500 -0.000108 -0.000004 21.342100 5.573320 -9.858780 -2.192480 -6.469440 -0.000000 -169.607000 -20.037700 -1.125890 39.081100 -0.000007 -0.000012 -0.146990 0.358167 22.313200 40.985400 -0.000006 -0.000013 -5.507730 0.269060 -64.055900 11.754300 -0.000000 0.000003 -0.000151 -0.001464 -16.633200 -2.192510 6.469440 -0.000001 173.699000 23.617300 -179.263000 -39.081100 -0.002282 -0.040193 0.022810 -0.051211 20.836000 -40.985400 0.000008 0.000006 -0.623733 3.971100 -64.110500 -11.754300 -0.000006 -0.000006 -0.004367 -0.055203 -18.818800
0.000000 0.000000 0.000000 0.000000 0.000000 -0.000000 -1.071610 92.109100 -0.030561 88.139100 -1.315170 4.735640 15.735700 0.000005 -0.000001 74.123100 87.351200 -73.545600 8.984550 -0.406207 -0.000000 -2.663110 -1.501300 1.120290 16.377300 -0.000001 -0.000001 -1.561030 -1.164420 0.889304 6.456720 -0.000001 -0.000000 -1.266460 -0.612761 -0.139132 12.994200 -0.242716 4.980390 -84.422700 -12.415500 -65.572800 5.348090 -0.000007 -0.000001 -56.990100 -56.062300 -81.900000 24.328600 0.000019 0.000005 -1.183080 -0.425458 -70.221500 22.291600 -0.000001 0.000005 16.941000 5.635810 -13.784800 12.994500 -0.242716 -4.980390 92.567400 -6.038190 -66.912900 -5.348130 -0.000001 -0.000004 -46.928900 -57.241000 -90.479900 -24.328900 0.000322 -0.000009 1.684860 1.013340 -59.005200 -22.291500 -0.000108 -0.000004 19.670600 5.543670 -8.410310 -2.192480 -6.469440 -0.000000 -169.582000 -20.028300 -1.175520 39.081100 -0.000007 -0.000012 -0.146344 0.356309 22.329100 40.985400 -0.000006 -0.000013 -5.528460 0.245553 -64.065300 11.754300 -0.000000 0.000003 -0.000145 -0.001412 -16.631300 -2.192510 6.469440 -0.000001 173.758000 23.634200 -179.316000 -39.081100 -0.002282 -0.040193 0.022350 -0.049973 20.847700 -40.985400 0.000008 0.000006 -0.688852 3.972440 -64.085900 -11.754300 -0.000006 -0.000006 -0.004481 -0.056348 -18.865500
